<?xml version="1.0" ?><!DOCTYPE svg  PUBLIC '-//W3C//DTD SVG 1.1//EN'  'http://www.w3.org/Graphics/SVG/1.1/DTD/svg11.dtd'><svg enable-background="new 0 0 500 500" height="500px" id="Layer_1" version="1.1" viewBox="0 0 500 500" width="500px" xml:space="preserve" xmlns="http://www.w3.org/2000/svg" xmlns:xlink="http://www.w3.org/1999/xlink"><path clip-rule="evenodd" d="M251.685,4.788c-105.455,0-190.934,85.308-190.934,190.549  c0,46.881,14.471,92.094,56.969,145.708c36.957,46.622,133.964,150.169,133.964,150.169s84.891-98.597,126.27-150.169  c41.379-51.573,64.662-99.532,64.662-145.708C442.616,90.095,357.137,4.788,251.685,4.788z M351.967,137.946L219.819,295.148  l-67.95-76.636c-7-7.862-5.486-19.347,3.386-25.574c8.873-6.243,21.757-4.892,28.782,2.996l34.447,23.735l100.377-103.187  c6.666-8.115,19.486-9.963,28.621-4.005C356.629,118.402,358.624,129.807,351.967,137.946z" fill="#333333" fill-rule="evenodd"/></svg>